<?xml version="1.0" encoding="UTF-8" standalone="no"?>
<!-- Created with Inkscape (http://www.inkscape.org/) -->

<svg
   width="5cm"
   height="5cm"
   viewBox="0 0 50 50"
   version="1.1"
   id="svg1"
   xmlns="http://www.w3.org/2000/svg"
   xmlns:svg="http://www.w3.org/2000/svg">
  <defs
     id="defs1" />
  <g
     id="layer1">
    <g
       id="g3"
       transform="translate(-0.68143463,-5.9781414)">
      <path
         style="fill:none;stroke:#00a481;stroke-width:1;stroke-linejoin:bevel;stroke-dasharray:none;stroke-dashoffset:0;stroke-opacity:1"
         d="M 12.328274,36.028206 13.093318,13.172521 26.202741,26.107116 39.034595,36.168449 36.044628,12.598737"
         id="path2" />
      <path
         style="fill:none;stroke:#00a481;stroke-width:1;stroke-linejoin:bevel;stroke-dasharray:1, 2;stroke-dashoffset:0;stroke-opacity:1"
         d="m 12.328274,36.028206 13.874467,-9.92109 9.841887,-13.508379"
         id="path3" />
      <circle
         style="fill:#00a481;fill-opacity:1;stroke:#00795f;stroke-width:1;stroke-dasharray:none;stroke-opacity:1"
         id="path1"
         cx="26.202742"
         cy="26.107117"
         r="3" />
      <circle
         style="fill:#00a481;fill-opacity:1;stroke:#00795f;stroke-width:1;stroke-dasharray:none;stroke-opacity:1"
         id="path1-5"
         cx="13.093318"
         cy="13.172522"
         r="3" />
      <circle
         style="fill:#00a481;fill-opacity:1;stroke:#00795f;stroke-width:1;stroke-dasharray:none;stroke-opacity:1"
         id="path1-6"
         cx="39.034595"
         cy="36.168449"
         r="3" />
      <circle
         style="fill:#00a481;fill-opacity:1;stroke:#00795f;stroke-width:1;stroke-dasharray:none;stroke-opacity:1"
         id="path1-2"
         cx="36.044628"
         cy="12.598737"
         r="3" />
      <circle
         style="fill:#00a481;fill-opacity:1;stroke:#00795f;stroke-width:1;stroke-dasharray:none;stroke-opacity:1"
         id="path1-7"
         cx="12.328274"
         cy="36.028206"
         r="3" />
    </g>
    <path
       d="m 10.519586,45.560257 h 2.783635 l 2.804306,-7.703228 h -2.501138 l -1.13688,3.768932 c -0.206706,0.695909 -0.36518,1.391817 -0.516764,2.135958 -0.158474,-0.744141 -0.323839,-1.440049 -0.530544,-2.135958 L 10.795194,39.641587 C 10.409343,38.318672 9.6100817,37.801908 8.0391194,37.801908 H 7.5774769 v 1.84657 h 0.4340817 c 0.2618271,0 0.4203013,0.103352 0.5029836,0.323838 z m 10.131328,0.144694 c 2.404675,0 3.865394,-1.598523 3.865394,-3.968747 0,-2.377114 -1.460719,-3.975637 -3.865394,-3.975637 -2.411565,0 -3.872284,1.598523 -3.872284,3.975637 0,2.370224 1.460719,3.968747 3.872284,3.968747 z m 0,-1.83968 c -0.923285,0 -1.419378,-0.861273 -1.419378,-2.142847 0,-1.288465 0.496093,-2.122178 1.419378,-2.122178 0.923285,0 1.419378,0.833713 1.419378,2.122178 0,1.281574 -0.496093,2.142847 -1.419378,2.142847 z m 9.104692,1.798339 c 2.259981,0 3.686249,-1.219563 3.686249,-3.203937 v -4.602644 h -2.397784 v 4.44417 c 0,0.875054 -0.502984,1.384927 -1.281575,1.384927 -0.785481,0 -1.281574,-0.509873 -1.281574,-1.384927 v -4.44417 h -2.404675 v 4.602644 c 0,1.984374 1.426268,3.203937 3.679359,3.203937 z m 0.999077,-8.853889 c 0.875053,0 1.536511,-0.695909 1.564072,-1.984373 h -1.233343 c -0.02067,0.461642 -0.151584,0.716579 -0.502984,0.716579 -0.468532,0 -0.854383,-0.75792 -1.812119,-0.75792 -0.895724,0 -1.536511,0.682128 -1.564072,1.977483 h 1.247124 c 0.02067,-0.447862 0.179145,-0.716579 0.482313,-0.716579 0.475423,0 0.854383,0.76481 1.819009,0.76481 z m 9.44231,10.728019 h 1.929252 v -1.260904 c 0,-1.688095 -1.205782,-2.549368 -2.852536,-2.549368 h -0.37207 c -0.923285,0 -1.446939,-0.675239 -1.446939,-2.005044 0,-1.329806 0.523654,-2.122178 1.446939,-2.122178 0.709689,0 1.150661,0.461643 1.302245,1.267795 l 2.218639,-0.37207 c -0.241156,-1.674316 -1.584742,-2.735404 -3.548445,-2.735404 -2.411565,0 -3.872285,1.598523 -3.872285,3.975637 0,2.370224 1.46072,3.824053 3.872285,3.824053 h 0.330729 c 0.709689,0 0.992186,0.254937 0.992186,0.943955 z"
       id="text3"
       style="font-weight:800;font-size:14.1111px;font-family:Inter;-inkscape-font-specification:'Inter, Ultra-Bold';letter-spacing:0.264583px;fill:#00a481;stroke:#00795f;stroke-width:0.8"
       aria-label="νοῦς" />
  </g>
</svg>
